<svg width="32" height="27" viewBox="0 0 32 27" fill="none" xmlns="http://www.w3.org/2000/svg">
<path d="M30.9846 7.77733C31.2582 8.08737 31.3606 8.45942 31.2924 8.89347L29.9928 15.6524C29.9472 16.0039 29.7704 16.2932 29.4627 16.5205C29.1549 16.7479 28.8073 16.8616 28.4196 16.8616H9.47319L9.097 18.7838H27.1543C27.5875 18.7838 27.9635 18.9233 28.2828 19.2024C28.6021 19.4814 28.7615 19.8276 28.7615 20.241C28.7615 20.6544 28.602 21.0006 28.2828 21.2796C27.9635 21.5587 27.5875 21.6982 27.1543 21.6982H7.18183C6.70304 21.6982 6.29265 21.5225 5.95066 21.1713C5.63146 20.8198 5.50607 20.4167 5.57447 19.9621L6.42945 15.7456L5.12987 3.90192L1.43635 2.84778C1.00316 2.72376 0.689662 2.48602 0.495865 2.13469C0.302069 1.78326 0.26217 1.41126 0.376168 1.01854C0.512965 0.625823 0.78086 0.341619 1.17985 0.165929C1.57884 -0.00976054 1.98354 -0.045932 2.39393 0.0574149L7.11344 1.42159C7.40983 1.50427 7.65492 1.65929 7.84872 1.88665C8.04252 2.11402 8.16222 2.37244 8.20781 2.66181L8.48141 5.01812L29.8902 7.1884C30.369 7.25026 30.7338 7.44662 30.9846 7.77733ZM9.61004 22.5043C10.294 22.5043 10.8754 22.7213 11.3542 23.1555C11.833 23.5894 12.0724 24.1166 12.0724 24.7367C12.0724 25.3566 11.833 25.889 11.3542 26.3334C10.8754 26.7778 10.294 27 9.61004 27C8.92606 27 8.34467 26.7778 7.86588 26.3334C7.38709 25.8891 7.14769 25.3568 7.14769 24.7367C7.14769 24.1166 7.38709 23.5895 7.86588 23.1555C8.34461 22.7213 8.926 22.5043 9.61004 22.5043ZM24.2131 22.5043C24.897 22.5043 25.4785 22.7213 25.9573 23.1555C26.4359 23.5894 26.6755 24.1166 26.6755 24.7367C26.6755 25.3566 26.4361 25.889 25.9573 26.3334C25.4785 26.7778 24.897 27 24.2131 27C23.5291 27 22.9476 26.7778 22.469 26.3334C21.9902 25.8891 21.7506 25.3568 21.7506 24.7367C21.7506 24.1166 21.9901 23.5895 22.469 23.1555C22.9477 22.7213 23.5291 22.5043 24.2131 22.5043Z" fill="white"/>
</svg>
